<svg width="69" height="21" viewBox="0 0 69 21" fill="none" xmlns="http://www.w3.org/2000/svg">
<path d="M0.235352 6.93589C0.235352 4.69568 0.235352 3.57557 0.657408 2.71993C1.02866 1.96728 1.62105 1.35536 2.34967 0.971863C3.178 0.535889 4.26235 0.535889 6.43105 0.535889H62.7732C64.9419 0.535889 66.0262 0.535889 66.8546 0.971863C67.5832 1.35536 68.1756 1.96728 68.5468 2.71993C68.9689 3.57557 68.9689 4.69568 68.9689 6.93589V14.1359C68.9689 16.3761 68.9689 17.4962 68.5468 18.3519C68.1756 19.1045 67.5832 19.7164 66.8546 20.0999C66.0262 20.5359 64.9419 20.5359 62.7732 20.5359H6.43105C4.26235 20.5359 3.178 20.5359 2.34967 20.0999C1.62105 19.7164 1.02866 19.1045 0.657408 18.3519C0.235352 17.4962 0.235352 16.3761 0.235352 14.1359V6.93589Z" fill="url(#paint0_linear_7_125)"/>
<path d="M24.4358 12.6747L24.4298 15.2106C24.4298 15.3873 24.3796 15.5499 24.2792 15.6985C24.1386 15.9033 23.9338 16.0057 23.6648 16.0057C23.3476 16.0057 23.0986 15.8772 22.9179 15.6202C22.7773 15.4194 22.7071 15.2046 22.7071 14.9757C22.7071 14.0842 22.7352 12.745 22.7914 10.958C22.8476 9.17107 22.8757 7.83186 22.8757 6.94039C22.8757 6.71551 22.956 6.52276 23.1167 6.36214C23.2773 6.20151 23.4781 6.1212 23.719 6.1212C23.9599 6.1212 24.1587 6.20151 24.3153 6.36214C24.476 6.52276 24.5563 6.71551 24.5563 6.94039C24.5563 7.30179 24.5382 7.78969 24.5021 8.40408C24.4579 9.11887 24.4318 9.60677 24.4238 9.86778C24.7048 9.60275 25.7469 8.48641 27.5499 6.51875C27.7346 6.31796 27.9475 6.21757 28.1884 6.21757C28.4173 6.21757 28.6161 6.29789 28.7847 6.45851C28.9574 6.61914 29.0437 6.8139 29.0437 7.04279C29.0437 7.29176 28.5659 7.93827 27.6102 8.98234C26.9034 9.74932 26.1585 10.5063 25.3755 11.2532C25.8132 11.6668 26.2529 12.0804 26.6946 12.494C27.2086 12.9678 27.6704 13.3574 28.08 13.6626C28.2848 13.8111 28.5056 13.9236 28.7426 13.9999C29.1722 14.1364 29.3871 14.3994 29.3871 14.7889C29.3871 14.9616 29.3329 15.1283 29.2244 15.2889C29.0759 15.5057 28.8691 15.6141 28.604 15.6141C28.0298 15.6141 27.2849 15.2387 26.3693 14.4878C26.0963 14.2629 25.4518 13.6585 24.4358 12.6747Z" fill="black"/>
<path d="M35.609 8.22338C35.4002 8.22338 34.828 8.16716 33.8924 8.05472C33.8361 8.7936 33.808 9.77542 33.808 11.0002L33.802 13.7047C34.3361 13.6927 34.8802 13.6866 35.4344 13.6866C35.6753 13.6866 35.8741 13.767 36.0307 13.9276C36.1913 14.0882 36.2716 14.281 36.2716 14.5058C36.2716 14.7307 36.1913 14.9235 36.0307 15.0841C35.8741 15.2407 35.6753 15.319 35.4344 15.319C35.2095 15.319 34.8722 15.325 34.4224 15.3371C33.9727 15.3451 33.6354 15.3491 33.4105 15.3491C33.1455 15.3491 32.7479 15.3833 32.2179 15.4515C31.6878 15.5238 31.2902 15.5599 31.0252 15.5599C30.7843 15.5599 30.5835 15.4816 30.4229 15.325C30.2663 15.1644 30.1879 14.9716 30.1879 14.7468C30.1879 14.5219 30.2663 14.3291 30.4229 14.1685C30.5835 14.0079 30.7843 13.9276 31.0252 13.9276C31.2983 13.9276 31.6577 13.8975 32.1034 13.8372C32.0954 13.3634 32.0914 12.4559 32.0914 11.1146C32.0914 10.0224 32.1315 8.98033 32.2118 7.98847L30.9047 8.02461C30.6638 8.02461 30.461 7.9463 30.2964 7.78969C30.1357 7.63308 30.0554 7.43833 30.0554 7.20542C30.0554 6.9685 30.1357 6.77575 30.2964 6.62717C30.4449 6.49064 30.6277 6.41233 30.8445 6.39225C31.1979 6.36013 31.8123 6.34407 32.6877 6.34407C33.4747 6.34407 34.4887 6.42839 35.7295 6.59705C36.2234 6.66532 36.4704 6.9424 36.4704 7.42829C36.4704 7.68529 36.37 7.88808 36.1692 8.03665C36.0046 8.16114 35.8179 8.22338 35.609 8.22338Z" fill="black"/>
<path d="M40.277 15.7105C39.257 15.7105 38.4539 15.4836 37.8676 15.0299C37.3737 14.6524 37.1267 14.2167 37.1267 13.7228C37.1267 13.4698 37.203 13.261 37.3556 13.0963C37.5082 12.9277 37.719 12.8434 37.9881 12.8434C38.3495 12.8434 38.6145 13.0281 38.7832 13.3975C39.0121 13.8914 39.5301 14.1384 40.3372 14.1384C41.0279 14.1384 41.6965 13.9878 42.343 13.6866C43.0136 13.3774 43.3489 13.0381 43.3489 12.6687C43.3489 12.1627 43.1401 11.8294 42.7225 11.6688C42.4253 11.5523 41.829 11.4841 40.9335 11.464C40.2388 11.4479 39.6164 11.3174 39.0663 11.0725C38.3234 10.7392 37.958 10.2613 37.97 9.63889C37.982 8.85584 38.3997 8.13905 39.2229 7.48852C40.0461 6.83397 40.9536 6.5067 41.9455 6.5067C42.339 6.5067 42.8249 6.59705 43.4031 6.77775C44.1219 7.00263 44.4813 7.26164 44.4813 7.55478C44.4813 7.76359 44.4091 7.94831 44.2645 8.10894C44.1039 8.28964 43.8971 8.37999 43.6441 8.37999C43.4553 8.37999 43.1722 8.33983 42.7948 8.25952C42.4213 8.17921 42.1382 8.13905 41.9455 8.13905C41.4275 8.14307 40.9355 8.26755 40.4697 8.51251C39.9879 8.76148 39.7469 9.03253 39.7469 9.32567C39.7469 9.47827 39.8192 9.60476 39.9638 9.70515C40.1123 9.80152 40.3332 9.86979 40.6263 9.90995C41.1403 9.93806 41.6523 9.96616 42.1623 9.99427C43.0538 10.0625 43.7585 10.3135 44.2765 10.7472C44.8468 11.2291 45.1319 11.8957 45.1319 12.747C45.1319 13.783 44.5416 14.5681 43.361 15.1022C42.4615 15.5077 41.4335 15.7105 40.277 15.7105Z" fill="black"/>
<path d="M48.0169 12.6747L48.0108 15.2106C48.0108 15.3873 47.9606 15.5499 47.8603 15.6985C47.7197 15.9033 47.5149 16.0057 47.2459 16.0057C46.9286 16.0057 46.6797 15.8772 46.499 15.6202C46.3584 15.4194 46.2881 15.2046 46.2881 14.9757C46.2881 14.0842 46.3162 12.745 46.3725 10.958C46.4287 9.17107 46.4568 7.83186 46.4568 6.94039C46.4568 6.71551 46.5371 6.52276 46.6977 6.36214C46.8584 6.20151 47.0591 6.1212 47.3001 6.1212C47.541 6.1212 47.7398 6.20151 47.8964 6.36214C48.057 6.52276 48.1373 6.71551 48.1373 6.94039C48.1373 7.30179 48.1193 7.78969 48.0831 8.40408C48.039 9.11887 48.0129 9.60677 48.0048 9.86778C48.2859 9.60275 49.328 8.48641 51.131 6.51875C51.3157 6.31796 51.5285 6.21757 51.7695 6.21757C51.9984 6.21757 52.1971 6.29789 52.3658 6.45851C52.5385 6.61914 52.6248 6.8139 52.6248 7.04279C52.6248 7.29176 52.1469 7.93827 51.1912 8.98234C50.4845 9.74932 49.7396 10.5063 48.9565 11.2532C49.3942 11.6668 49.8339 12.0804 50.2757 12.494C50.7897 12.9678 51.2515 13.3574 51.6611 13.6626C51.8658 13.8111 52.0867 13.9236 52.3236 13.9999C52.7533 14.1364 52.9681 14.3994 52.9681 14.7889C52.9681 14.9616 52.9139 15.1283 52.8055 15.2889C52.6569 15.5057 52.4501 15.6141 52.1851 15.6141C51.6109 15.6141 50.866 15.2387 49.9504 14.4878C49.6773 14.2629 49.0328 13.6585 48.0169 12.6747Z" fill="black"/>
<path d="M58.1601 15.7105C56.9715 15.7105 55.9595 15.3692 55.1243 14.6865C54.2328 13.9557 53.7871 13.01 53.7871 11.8495C53.7871 10.4842 54.2147 9.23934 55.0701 8.11496C56.0298 6.85004 57.2385 6.21757 58.6962 6.21757C60.0976 6.21757 61.1477 6.53882 61.8465 7.18133C62.5452 7.82383 62.8945 8.78959 62.8945 10.0786C62.8945 11.4439 62.501 12.6807 61.7139 13.789C60.8064 15.07 59.6218 15.7105 58.1601 15.7105ZM58.6962 7.84993C57.8007 7.84993 57.0337 8.28362 56.3952 9.15099C55.7969 9.96215 55.4977 10.8617 55.4977 11.8495C55.4977 12.5161 55.7568 13.0582 56.2748 13.4758C56.7727 13.8774 57.4012 14.0782 58.1601 14.0782C59.0435 14.0782 59.7804 13.6445 60.3707 12.7771C60.9128 11.986 61.1839 11.0865 61.1839 10.0786C61.1839 9.23532 60.9951 8.64904 60.6177 8.31976C60.2563 8.00654 59.6158 7.84993 58.6962 7.84993Z" fill="black"/>
<path d="M24.2168 12.2251L24.2107 14.761C24.2107 14.9377 24.1605 15.1003 24.0602 15.2489C23.9196 15.4537 23.7148 15.5561 23.4458 15.5561C23.1285 15.5561 22.8796 15.4276 22.6989 15.1706C22.5583 14.9698 22.488 14.755 22.488 14.5261C22.488 13.6346 22.5161 12.2954 22.5724 10.5085C22.6286 8.7215 22.6567 7.38229 22.6567 6.49082C22.6567 6.26594 22.737 6.07319 22.8976 5.91257C23.0583 5.75194 23.259 5.67163 23.5 5.67163C23.7409 5.67163 23.9397 5.75194 24.0963 5.91257C24.2569 6.07319 24.3372 6.26594 24.3372 6.49082C24.3372 6.85223 24.3192 7.34013 24.283 7.95452C24.2389 8.6693 24.2128 9.1572 24.2047 9.41821C24.4858 9.15318 25.5279 8.03684 27.3309 6.06918C27.5156 5.8684 27.7284 5.76801 27.9694 5.76801C28.1983 5.76801 28.397 5.84832 28.5657 6.00894C28.7384 6.16957 28.8247 6.36433 28.8247 6.59322C28.8247 6.84219 28.3468 7.4887 27.3911 8.53277C26.6844 9.29975 25.9395 10.0567 25.1564 10.8036C25.5941 11.2172 26.0338 11.6308 26.4756 12.0444C26.9896 12.5183 27.4514 12.9078 27.861 13.213C28.0657 13.3616 28.2866 13.474 28.5235 13.5503C28.9532 13.6868 29.168 13.9499 29.168 14.3394C29.168 14.512 29.1138 14.6787 29.0054 14.8393C28.8568 15.0562 28.65 15.1646 28.385 15.1646C27.8108 15.1646 27.0659 14.7891 26.1503 14.0382C25.8772 13.8133 25.2327 13.209 24.2168 12.2251Z" fill="white"/>
<path d="M35.39 7.77381C35.1812 7.77381 34.609 7.71759 33.6733 7.60516C33.6171 8.34403 33.589 9.32585 33.589 10.5506L33.583 13.2551C34.1171 13.2431 34.6612 13.2371 35.2153 13.2371C35.4563 13.2371 35.655 13.3174 35.8117 13.478C35.9723 13.6386 36.0526 13.8314 36.0526 14.0563C36.0526 14.2811 35.9723 14.4739 35.8117 14.6345C35.655 14.7911 35.4563 14.8694 35.2153 14.8694C34.9905 14.8694 34.6531 14.8755 34.2034 14.8875C33.7536 14.8955 33.4163 14.8995 33.1915 14.8995C32.9264 14.8995 32.5289 14.9337 31.9988 15.0019C31.4688 15.0742 31.0712 15.1104 30.8062 15.1104C30.5652 15.1104 30.3645 15.0321 30.2038 14.8755C30.0472 14.7148 29.9689 14.5221 29.9689 14.2972C29.9689 14.0723 30.0472 13.8796 30.2038 13.719C30.3645 13.5583 30.5652 13.478 30.8062 13.478C31.0792 13.478 31.4386 13.4479 31.8844 13.3877C31.8763 12.9138 31.8723 12.0063 31.8723 10.6651C31.8723 9.57282 31.9125 8.53076 31.9928 7.5389L30.6857 7.57504C30.4448 7.57504 30.242 7.49673 30.0773 7.34013C29.9167 7.18352 29.8364 6.98876 29.8364 6.75585C29.8364 6.51893 29.9167 6.32618 30.0773 6.1776C30.2259 6.04107 30.4086 5.96276 30.6255 5.94269C30.9788 5.91056 31.5932 5.8945 32.4686 5.8945C33.2557 5.8945 34.2697 5.97883 35.5105 6.14748C36.0044 6.21575 36.2514 6.49283 36.2514 6.97872C36.2514 7.23572 36.151 7.43851 35.9502 7.58709C35.7856 7.71157 35.5988 7.77381 35.39 7.77381Z" fill="white"/>
<path d="M40.0579 15.261C39.038 15.261 38.2348 15.0341 37.6486 14.5803C37.1546 14.2028 36.9077 13.7671 36.9077 13.2732C36.9077 13.0202 36.984 12.8114 37.1366 12.6468C37.2892 12.4781 37.5 12.3938 37.769 12.3938C38.1304 12.3938 38.3955 12.5785 38.5641 12.948C38.793 13.4419 39.311 13.6888 40.1182 13.6888C40.8089 13.6888 41.4775 13.5383 42.124 13.2371C42.7946 12.9279 43.1299 12.5886 43.1299 12.2191C43.1299 11.7131 42.9211 11.3798 42.5035 11.2192C42.2063 11.1028 41.61 11.0345 40.7145 11.0144C40.0198 10.9984 39.3974 10.8679 38.8472 10.6229C38.1043 10.2896 37.7389 9.81175 37.751 9.18932C37.763 8.40628 38.1806 7.68949 39.0038 7.03895C39.827 6.38441 40.7346 6.05713 41.7264 6.05713C42.12 6.05713 42.6059 6.14748 43.1841 6.32819C43.9029 6.55306 44.2623 6.81207 44.2623 7.10521C44.2623 7.31402 44.19 7.49874 44.0455 7.65937C43.8848 7.84007 43.678 7.93042 43.4251 7.93042C43.2363 7.93042 42.9532 7.89027 42.5757 7.80995C42.2023 7.72964 41.9192 7.68949 41.7264 7.68949C41.2084 7.6935 40.7165 7.81799 40.2507 8.06294C39.7688 8.31191 39.5279 8.58296 39.5279 8.8761C39.5279 9.0287 39.6002 9.15519 39.7447 9.25558C39.8933 9.35196 40.1142 9.42022 40.4073 9.46038C40.9213 9.48849 41.4333 9.5166 41.9433 9.54471C42.8348 9.61297 43.5395 9.86395 44.0575 10.2976C44.6277 10.7795 44.9128 11.4461 44.9128 12.2974C44.9128 13.3335 44.3225 14.1185 43.1419 14.6526C42.2424 15.0582 41.2144 15.261 40.0579 15.261Z" fill="white"/>
<path d="M47.7978 12.2251L47.7918 14.761C47.7918 14.9377 47.7416 15.1003 47.6412 15.2489C47.5007 15.4537 47.2959 15.5561 47.0268 15.5561C46.7096 15.5561 46.4606 15.4276 46.2799 15.1706C46.1394 14.9698 46.0691 14.755 46.0691 14.5261C46.0691 13.6346 46.0972 12.2954 46.1534 10.5085C46.2097 8.7215 46.2378 7.38229 46.2378 6.49082C46.2378 6.26594 46.3181 6.07319 46.4787 5.91257C46.6393 5.75194 46.8401 5.67163 47.081 5.67163C47.322 5.67163 47.5208 5.75194 47.6774 5.91257C47.838 6.07319 47.9183 6.26594 47.9183 6.49082C47.9183 6.85223 47.9002 7.34013 47.8641 7.95452C47.8199 8.6693 47.7938 9.1572 47.7858 9.41821C48.0669 9.15318 49.1089 8.03684 50.912 6.06918C51.0967 5.8684 51.3095 5.76801 51.5504 5.76801C51.7793 5.76801 51.9781 5.84832 52.1468 6.00894C52.3194 6.16957 52.4058 6.36433 52.4058 6.59322C52.4058 6.84219 51.9279 7.4887 50.9722 8.53277C50.2654 9.29975 49.5205 10.0567 48.7375 10.8036C49.1752 11.2172 49.6149 11.6308 50.0566 12.0444C50.5706 12.5183 51.0324 12.9078 51.442 13.213C51.6468 13.3616 51.8677 13.474 52.1046 13.5503C52.5343 13.6868 52.7491 13.9499 52.7491 14.3394C52.7491 14.512 52.6949 14.6787 52.5865 14.8393C52.4379 15.0562 52.2311 15.1646 51.9661 15.1646C51.3918 15.1646 50.6469 14.7891 49.7314 14.0382C49.4583 13.8133 48.8138 13.209 47.7978 12.2251Z" fill="white"/>
<path d="M57.9411 15.261C56.7524 15.261 55.7405 14.9196 54.9053 14.237C54.0138 13.5061 53.5681 12.5604 53.5681 11.3999C53.5681 10.0346 53.9957 8.78977 54.851 7.66539C55.8108 6.40047 57.0195 5.76801 58.4772 5.76801C59.8786 5.76801 60.9287 6.08926 61.6274 6.73176C62.3261 7.37426 62.6755 8.34002 62.6755 9.62903C62.6755 10.9943 62.282 12.2312 61.4949 13.3395C60.5874 14.6205 59.4028 15.261 57.9411 15.261ZM58.4772 7.40036C57.5817 7.40036 56.8147 7.83405 56.1762 8.70142C55.5779 9.51258 55.2787 10.4121 55.2787 11.3999C55.2787 12.0665 55.5377 12.6086 56.0557 13.0263C56.5537 13.4278 57.1821 13.6286 57.9411 13.6286C58.8245 13.6286 59.5614 13.1949 60.1517 12.3275C60.6938 11.5365 60.9648 10.637 60.9648 9.62903C60.9648 8.78575 60.7761 8.19947 60.3986 7.87019C60.0372 7.55697 59.3967 7.40036 58.4772 7.40036Z" fill="white"/>
<path fill-rule="evenodd" clip-rule="evenodd" d="M11.8007 3.15966C11.8601 3.16803 11.9781 3.18194 12.0629 3.19062C12.5233 3.23765 13.1155 3.35057 13.4353 3.45231C14.1117 3.6674 14.5091 3.83783 15.0622 4.14992C17.0561 5.27491 18.4532 7.42906 18.7001 9.75904C18.7087 9.83962 18.7246 9.98188 18.7356 10.0752C18.7609 10.2903 18.7614 10.8166 18.7365 11.0081C18.726 11.0887 18.7099 11.231 18.7007 11.3243C18.6551 11.7854 18.5229 12.4128 18.3855 12.8201C16.6947 17.8312 10.6299 19.5544 6.58871 16.1719C5.16262 14.9783 4.20398 13.168 4.02174 11.3243C4.01253 11.231 3.99642 11.0887 3.98593 11.0081C3.96126 10.8185 3.96145 10.275 3.9862 10.0675C3.99684 9.97841 4.01604 9.81186 4.02888 9.69736C4.06118 9.40907 4.08605 9.25925 4.16084 8.90318C4.51579 7.21251 5.62706 5.55179 7.09733 4.51462C7.78264 4.03121 8.3837 3.73964 9.2871 3.45231C9.60994 3.34965 10.1855 3.24024 10.675 3.18846C10.7683 3.17863 10.8793 3.16544 10.9217 3.15916C11.0381 3.142 11.6778 3.14235 11.8007 3.15966Z" fill="black"/>
<path fill-rule="evenodd" clip-rule="evenodd" d="M7.63697 6.98237C7.51742 7.01167 7.40288 7.11692 7.36958 7.22799C7.33954 7.3283 7.34471 9.03417 7.37528 9.10734C7.46565 9.32358 7.52282 9.34285 8.074 9.34285C8.62912 9.34285 8.69111 9.35978 8.79705 9.54001L8.83981 9.61272V10.538V11.4632L8.7974 11.5354C8.69639 11.7072 8.65811 11.7177 8.13137 11.7177C7.56511 11.7177 7.47683 11.7441 7.38403 11.9415C7.34074 12.0337 7.3328 13.7197 7.37517 13.8211C7.41079 13.9064 7.4993 13.9949 7.58011 14.0261C7.68948 14.0682 15.0519 14.0697 15.1413 14.0275C15.2308 13.9853 15.2952 13.9222 15.3341 13.8387L15.3703 13.7609V12.8897V12.0184L15.3327 11.9377C15.2444 11.7481 15.143 11.7184 14.5821 11.718C14.0652 11.7176 14.0255 11.7066 13.9249 11.5354L13.8824 11.4632V10.538C13.8824 9.51341 13.876 9.58242 13.9839 9.45947C14.0765 9.354 14.1397 9.34285 14.6445 9.34285C15.4095 9.34285 15.3706 9.40616 15.3706 8.16285C15.3706 7.10212 15.3745 7.12375 15.1624 7.00909L15.1007 6.97574L11.392 6.97339C9.35217 6.97208 7.66242 6.97613 7.63697 6.98237Z" fill="white"/>
<defs>
<linearGradient id="paint0_linear_7_125" x1="34.6021" y1="20.5359" x2="34.6021" y2="0.535888" gradientUnits="userSpaceOnUse">
<stop stop-color="#F85346"/>
<stop offset="1" stop-color="#2B084A"/>
</linearGradient>
</defs>
</svg>
